<svg xmlns="http://www.w3.org/2000/svg" fill="none" height="20" viewBox="0 0 20 20" width="20">
    <path d="M13.6589 5.87932C12.7223 4.98599 11.4723 4.49932 10.1789 4.51932C7.81227 4.51932 5.80227 6.11599 5.0856 8.26599C4.70581 9.39246 4.70582 10.6122 5.08572 11.7386H5.08893C5.80893 13.8853 7.8156 15.4819 10.1823 15.4819C11.404 15.4819 12.4528 15.1694 13.2657 14.6175V14.6149C14.2224 13.9816 14.8757 12.9849 15.079 11.8582H10.179V8.36491H18.7357C18.8424 8.97157 18.8924 9.59157 18.8924 10.2082C18.8924 12.9676 17.9062 15.3004 16.1903 16.8804L16.1923 16.8819C14.6889 18.2686 12.6256 19.0719 10.1789 19.0719C6.74893 19.0719 3.61227 17.1386 2.07227 14.0753C0.785755 11.512 0.785807 8.49194 2.07242 5.92871C3.61253 2.8624 6.74916 0.929322 10.1789 0.929322C12.4323 0.902656 14.6089 1.74932 16.2489 3.28932L13.6589 5.87932Z" fill="currentColor">
    </path>
</svg>